<svg viewBox="0 0 96 96" xmlns="http://www.w3.org/2000/svg" xmlns:xlink="http://www.w3.org/1999/xlink" id="Icons_Chat" overflow="hidden"><style>
.MsftOfcThm_Accent2_Fill {
 fill:#ED7D31; 
}
</style>
<path d="M42 27 58 27 58 24C58 21.8 56.2 20 54 20L12 20C9.8 20 8 21.8 8 24L8 51C8 53.2 9.8 55 12 55L18 55 18 65 28 55 34 55 34 35C34 30.6 37.6 27 42 27Z" fill="#ED7D31"/><path d="M84 31 42 31C39.8 31 38 32.8 38 35L38 62C38 64.2 39.8 66 42 66L68 66 78 76 78 66 84 66C86.2 66 88 64.2 88 62L88 35C88 32.8 86.2 31 84 31Z" fill="#ED7D31"/></svg>